HIERARCHY
ROOT Hips
{
	OFFSET 0.00000 0.00000 0.00000
	CHANNELS 6 Xposition Yposition Zposition Yrotation Zrotation Xrotation 
	JOINT Lumbar
	{
		OFFSET 0 0 0
		CHANNELS 3 Zrotation Xrotation Yrotation
		JOINT Neck
		{
			OFFSET 0.00 0.2701 0.00
			CHANNELS 3 Zrotation Xrotation Yrotation
			End Site
			{
				OFFSET 0.00 0.1379 0.00
			}
		}
		JOINT RightShoulder
		{
			OFFSET 0.0119 0.2289 0.1181
			CHANNELS 3 Zrotation Xrotation Yrotation
			JOINT RightElbow
			{
				OFFSET 0.00 -0.1475 0.00
				CHANNELS 2 Zrotation Yrotation
				JOINT RightWrist
				{
					OFFSET 0.00 -0.1605 0.00
					CHANNELS 2 Zrotation Xrotation
					End Site
					{
						OFFSET 0.0040 -0.1068 0.0006
					}
				}
			}
		}
		JOINT LeftShoulder
		{
			OFFSET 0.0119 0.2289 -0.1181
			CHANNELS 3 Zrotation Xrotation Yrotation
			JOINT LeftElbow
			{
				OFFSET 0.00 -0.1475 0.00
				CHANNELS 2 Zrotation Yrotation
				JOINT LeftWrist
				{
					OFFSET 0.00 -0.1605 0.00
					CHANNELS 2 Zrotation Xrotation
					End Site
					{
						OFFSET 0.0040 -0.1068 -0.0006
					}
				}
			}
		}
	}
	JOINT RightHip
	{
		OFFSET 0.0316 -0.0424 0.0458
		CHANNELS 3 Zrotation Xrotation Yrotation
		JOINT RightKnee
		{
			OFFSET 0.00 -0.2438 0.00
			CHANNELS 1 Zrotation
			JOINT RightAnkle
			{
				OFFSET 0.00 -0.2449 0.00
				CHANNELS 3 Zrotation Xrotation Yrotation
				End Site
				{
					OFFSET 0.1237 -0.0542 0.0051
				}
			}
		}
	}
	JOINT LeftHip
	{
		OFFSET 0.0316 -0.0424 -0.0458
		CHANNELS 3 Zrotation Xrotation Yrotation
		JOINT LeftKnee
		{
			OFFSET 0.00 -0.2438 0.00
			CHANNELS 1 Zrotation
			JOINT LeftAnkle
			{
				OFFSET 0.00 -0.2449 0.00
				CHANNELS 3 Zrotation Xrotation Yrotation
				End Site
				{
					OFFSET 0.1237 -0.0542 -0.0051
				}
			}
		}
	}
}
MOTION
Frames: 27
Frame Time: 0.02
0.00022 0.00015 0.00012 19.2933 -32.48886 -2.88462 57.02082 1.19023 2.11813 -10.72342 -0.67392 -1.2762 157.44084 -74.55909 -48.37626 12.92999 71.15151 -2.04695 -13.29553 -2.51896 102.08445 5.06858 5.78712 -4.75856 -21.0506 -16.27103 46.60485 -4.1176 -17.58732 -19.55314 -7.04511 -2.96592 -3.69379 50.37538 0.38614 -1.4319 -24.61688 -8.65076 4.65477 4.60659
-0.00019 0.0001 0 19.21675 -32.59347 -2.89605 56.98936 1.19562 2.16803 -10.69729 -0.71235 -1.27643 157.44294 -74.54917 -48.46478 12.95427 71.15311 -2.01195 -13.30059 -2.2543 102.05765 4.8661 5.78714 -4.75876 -21.06685 -16.27097 46.77899 -4.06367 -17.19272 -19.5427 -7.07101 -2.99382 -3.70959 50.42087 0.77966 0.48358 -24.60663 -8.51404 4.48704 4.51769
-0.0006 5e-05 -0.00011 19.1404 -32.69782 -2.90745 56.95793 1.20096 2.21781 -10.67125 -0.75075 -1.27665 157.44493 -74.53927 -48.5532 12.97847 71.1547 -1.97706 -13.30564 -1.99067 102.03093 4.66432 5.78715 -4.75896 -21.08295 -16.2709 46.95268 -4.00991 -16.79912 -19.53224 -7.09685 -3.02163 -3.72535 50.46634 1.17186 2.39282 -24.59644 -8.37776 4.31987 4.42909
-0.001 -1e-05 -0.00022 19.06407 -32.80211 -2.91885 56.92656 1.20633 2.26756 -10.6452 -0.78908 -1.27688 157.44701 -74.52937 -48.64147 13.00267 71.15629 -1.94217 -13.31068 -1.72684 102.00422 4.46248 5.78717 -4.75916 -21.09914 -16.27083 47.1263 -3.95615 -16.4057 -19.52182 -7.12267 -3.04944 -3.74111 50.51171 1.56415 4.30235 -24.58623 -8.24147 4.15266 4.34047
-0.00141 -6e-05 -0.00034 18.98756 -32.90665 -2.93028 56.89518 1.21174 2.31743 -10.61907 -0.82742 -1.2771 157.44922 -74.51945 -48.72978 13.02695 71.15792 -1.90718 -13.31573 -1.46193 101.9774 4.25988 5.78719 -4.75936 -21.11547 -16.27077 47.30036 -3.90221 -16.01137 -19.51145 -7.14855 -3.07732 -3.7569 50.55705 1.95782 6.21826 -24.57596 -8.10472 3.98489 4.25155
-0.00182 -0.00011 -0.00045 18.91156 -33.01059 -2.94163 56.86364 1.21696 2.367 -10.5932 -0.86595 -1.27733 157.45076 -74.5096 -48.81841 13.05096 71.15941 -1.87248 -13.32079 -1.20101 101.95089 4.05981 5.7872 -4.75955 -21.13108 -16.2707 47.47324 -3.84885 -15.61935 -19.5008 -7.1743 -3.10501 -3.77258 50.60282 2.34688 8.11337 -24.56595 -7.96944 3.81898 4.16361
-0.00223 -0.00016 -0.00057 18.83461 -33.11561 -2.95313 56.83246 1.22256 2.41712 -10.56683 -0.90404 -1.27755 157.45364 -74.49961 -48.90629 13.0755 71.16117 -1.83725 -13.32582 -0.93229 101.92382 3.85496 5.78722 -4.75975 -21.14821 -16.27064 47.6483 -3.79436 -15.22311 -19.49071 -7.20029 -3.13306 -3.78847 50.64766 2.74476 10.04812 -24.55542 -7.83138 3.64951 4.0738
-0.00264 -0.00022 -0.00068 18.75855 -33.21966 -2.96449 56.80096 1.22782 2.46673 -10.54092 -0.94255 -1.27778 157.45532 -74.48976 -48.99488 13.09955 71.16268 -1.8025 -13.33086 -0.67087 101.89722 3.65435 5.78724 -4.75996 -21.16378 -16.27057 47.82137 -3.74095 -14.83078 -19.48012 -7.22606 -3.16077 -3.80417 50.69337 3.13453 11.94654 -24.54538 -7.69585 3.48331 3.98571
-0.00304 -0.00027 -0.0008 18.68349 -33.32249 -2.97565 56.769 1.2326 2.51577 -10.51558 -0.98157 -1.27802 157.45538 -74.48002 -49.08435 13.12303 71.16392 -1.76836 -13.33598 -0.4179 101.87137 3.45953 5.78725 -4.76011 -21.17806 -16.27052 47.99201 -3.68868 -14.44293 -19.46885 -7.25157 -3.18809 -3.81965 50.74016 3.51447 13.80041 -24.53589 -7.56345 3.32113 3.89973
-0.00346 -0.00032 -0.0009 18.60238 -33.43223 -2.98789 56.73948 1.23996 2.56826 -10.48699 -1.01762 -1.2782 157.46432 -74.4695 -49.1688 13.14986 71.16679 -1.73075 -13.34085 -0.11487 101.84173 3.2332 5.78727 -4.76039 -21.20161 -16.27043 48.17665 -3.62931 -14.02838 -19.4613 -7.27857 -3.21771 -3.83643 50.78075 3.95123 15.91024 -24.5231 -7.41316 3.13585 3.8016
-0.00385 -0.00037 -0.00104 18.53426 -33.52743 -2.99791 56.70495 1.24199 2.61333 -10.46524 -1.05994 -1.27851 157.45478 -74.46071 -49.26375 13.16957 71.16616 -1.70047 -13.34613 0.08163 101.81974 3.0722 5.78728 -4.76055 -21.20443 -16.27038 48.33169 -3.58527 -13.6708 -19.44601 -7.30243 -3.24245 -3.85044 50.8344 4.26794 17.48015 -24.51733 -7.30059 2.99928 3.72911
-0.00418 -0.00042 -0.00126 18.50012 -33.58204 -3.00136 56.65538 1.22835 2.63904 -10.46261 -1.11968 -1.27915 157.39176 -74.45599 -49.38889 13.16997 71.15643 -1.69035 -13.3537 -0.00951 101.82173 3.10114 5.78729 -4.76037 -21.15927 -16.27042 48.40537 -3.58101 -13.46586 -19.40835 -7.31776 -3.25385 -3.85689 50.92462 4.25345 17.55336 -24.53053 -7.29281 2.99796 3.72776
-0.00448 -0.00046 -0.00151 18.47932 -33.62217 -3.00266 56.60099 1.20957 2.65711 -10.46676 -1.18566 -1.27991 157.3106 -74.45312 -49.52443 13.16321 71.14312 -1.68762 -13.36152 -0.20839 101.83088 3.19337 5.78729 -4.76091 -21.09151 -16.27029 48.44934 -3.59264 -13.31894 -19.36317 -7.32992 -3.26032 -3.86054 51.02777 4.1187 17.08725 -24.55079 -7.32267 3.04525 3.752
-0.0048 -0.0005 -0.00176 18.45352 -33.66939 -3.00525 56.54968 1.19383 2.67801 -10.46758 -1.24869 -1.28061 157.23966 -74.44984 -49.65416 13.15951 71.13109 -1.68144 -13.36843 -0.36116 101.83472 3.25009 5.78729 -4.76009 -21.02843 -16.27051 48.50704 -3.59844 -13.14766 -19.32214 -7.34352 -3.269 -3.86543 51.12461 4.04021 16.87782 -24.56801 -7.3345 3.06926 3.76401
-0.00512 -0.00055 -0.00197 18.4233 -33.7145 -3.00654 56.49472 1.17507 2.70157 -10.46951 -1.31231 -1.28133 157.16071 -74.44476 -49.78798 13.15642 71.12042 -1.67553 -13.37855 -0.50251 101.84703 3.33681 5.78729 -4.76026 -20.98945 -16.27047 48.56381 -3.59814 -12.96743 -19.27789 -7.35717 -3.27783 -3.87044 51.22356 3.95491 16.61832 -24.58462 -7.35037 3.09842 3.77862
-0.00542 -0.00059 -0.00228 18.40541 -33.7605 -3.01002 56.4461 1.1614 2.71782 -10.47067 -1.37606 -1.28204 157.09369 -74.44386 -49.91636 13.15061 71.10618 -1.67097 -13.38225 -0.69266 101.84364 3.37431 5.78729 -4.76278 -20.89424 -16.26984 48.61537 -3.61465 -12.82035 -19.23872 -7.36991 -3.28513 -3.87452 51.32087 3.85504 16.33539 -24.60407 -7.3667 3.12835 3.79387
-0.00568 -0.00062 -0.00286 18.41867 -33.81318 -3.02016 56.41706 1.16294 2.7154 -10.46864 -1.43964 -1.28275 157.06823 -74.45404 -50.02138 13.13708 71.08204 -1.66683 -13.36632 -0.99722 101.7939 3.25926 5.78729 -4.75511 -20.6449 -16.27181 48.66071 -3.67076 -12.74389 -19.21426 -7.38125 -3.29005 -3.87703 51.41301 3.74665 16.12054 -24.63056 -7.37531 3.14837 3.80463
-0.00592 -0.00066 -0.00356 18.44384 -33.86717 -3.03258 56.39441 1.16978 2.70591 -10.4655 -1.50293 -1.28345 157.05478 -74.46841 -50.12134 13.1214 71.05463 -1.66406 -13.34423 -1.34729 101.72898 3.08186 5.7873 -4.76666 -20.33353 -16.2689 48.70167 -3.74384 -12.70004 -19.19544 -7.39171 -3.29352 -3.87866 51.50258 3.6273 15.90062 -24.65948 -7.38302 3.16749 3.81514
-0.00617 -0.0007 -0.00421 18.46323 -33.92011 -3.04385 56.36823 1.17426 2.69994 -10.46247 -1.56574 -1.28415 157.03291 -74.48081 -50.22777 13.10808 71.0293 -1.6617 -13.32624 -1.67097 101.67097 2.94752 5.7873 -4.76275 -20.06241 -16.26993 48.74403 -3.81104 -12.64564 -19.17476 -7.40232 -3.29725 -3.88051 51.59168 3.51156 15.68282 -24.68667 -7.39099 3.18709 3.82575
-0.00642 -0.00073 -0.00482 18.48444 -33.9744 -3.05539 56.34449 1.17837 2.69258 -10.46128 -1.63146 -1.28487 157.02231 -74.49334 -50.31815 13.08887 71.00123 -1.65535 -13.30297 -2.01734 101.61048 2.79769 5.78731 -4.73067 -19.76853 -16.2781 48.78783 -3.8709 -12.57517 -19.15067 -7.41386 -3.30245 -3.88303 51.68817 3.39763 15.44746 -24.71675 -7.40091 3.20808 3.8373
-0.00666 -0.00077 -0.00556 18.50478 -34.02645 -3.06711 56.31731 1.18456 2.68633 -10.45597 -1.69081 -1.28556 156.99207 -74.50683 -50.43912 13.08123 70.97827 -1.65738 -13.28899 -2.33231 101.55482 2.60871 5.78731 -4.83276 -19.47134 -16.25216 48.828 -3.95004 -12.54525 -19.13534 -7.42333 -3.30436 -3.88398 51.76846 3.27861 15.25388 -24.74132 -7.40604 3.22533 3.84651
-0.00689 -0.00082 -0.00664 18.51768 -34.07126 -3.07733 56.27848 1.19537 2.6866 -10.43915 -1.73401 -1.28615 156.89819 -74.51988 -50.65879 13.10834 70.96907 -1.68354 -13.3039 -2.49254 101.48628 2.82216 5.78731 -4.66981 -19.50315 -16.29366 48.8594 -4.07655 -12.61695 -19.14144 -7.42721 -3.29726 -3.8808 51.80457 3.15124 15.18539 -24.74994 -7.39822 3.23211 3.84913
-0.00712 -0.00088 -0.00785 18.52976 -34.11388 -3.08794 56.23601 1.20801 2.68785 -10.41834 -1.7705 -1.28673 156.78529 -74.53428 -50.90701 13.1467 70.96534 -1.71784 -13.32789 -2.6288 101.42792 2.91835 5.78731 -4.7422 -19.48239 -16.27509 48.88751 -4.22199 -12.72751 -19.15682 -7.42916 -3.28707 -3.87614 51.82425 3.01922 15.16062 -24.75297 -7.38539 3.23493 3.84929
-0.00735 -0.00094 -0.00902 18.5434 -34.15817 -3.09931 56.19577 1.21979 2.68771 -10.39952 -1.80917 -1.28729 156.6856 -74.54925 -51.13356 13.17853 70.95989 -1.74744 -13.34678 -2.81394 101.38545 2.72685 5.78732 -5.1419 -19.26282 -16.17367 48.91707 -4.35993 -12.8228 -19.16838 -7.43201 -3.27839 -3.87214 51.8516 2.88785 15.11254 -24.75857 -7.3747 3.2396 3.85062
-0.00759 -0.00099 -0.01013 18.55194 -34.20006 -3.10678 56.15376 1.23212 2.69177 -10.37968 -1.85162 -1.28786 156.5676 -74.5588 -51.39647 13.21655 70.9511 -1.78114 -13.3702 -2.84399 101.25896 3.92023 5.78729 -3.77793 -19.94509 -16.5205 48.94632 -4.49426 -12.91318 -19.17689 -7.43447 -3.26885 -3.86796 51.87861 2.76194 15.07698 -24.76394 -7.36474 3.24423 3.85184
-0.00781 -0.00105 -0.0114 18.57141 -34.24592 -3.12248 56.11394 1.24338 2.68684 -10.36136 -1.88447 -1.28852 156.48237 -74.5806 -51.59074 13.24402 70.95057 -1.80842 -13.38564 -3.18622 101.30618 2.26799 5.78734 -6.05645 -18.78266 -15.94034 48.97591 -4.63981 -13.01757 -19.19585 -7.43762 -3.26085 -3.86408 51.90171 2.62405 15.02771 -24.76866 -7.35189 3.24778 3.85258
-0.008 -0.00114 -0.01303 18.61578 -34.30737 -3.16013 56.08522 1.25343 2.66137 -10.34536 -1.89359 -1.28851 156.4942 -74.63077 -51.58851 13.24231 70.97187 -1.81414 -13.38256 -4.43662 101.8635 -7.78391 5.78767 -19.08543 -12.148 -12.63483 49.00489 -4.81719 -13.19592 -19.22697 -7.44007 -3.25354 -3.85896 51.92421 2.45135 14.91443 -24.77097 -7.33386 3.25131 3.85367
